<svg width="40" height="40" viewBox="0 0 40 40" fill="none" xmlns="http://www.w3.org/2000/svg">
<path d="M11.0693 32.75L5.49067 38.1403L0 32.6733L11.0693 32.75Z" fill="#00A69A"/>
<path d="M19.0644 20.2777C17.9284 18.9287 17.9757 18.195 18.6857 17.485C19.5377 16.633 20.4134 16.988 21.4074 17.9347L19.0644 20.2777ZM30.7794 5.39138C31.6314 4.53938 32.507 4.89438 33.501 5.84105L31.158 8.18405C30.022 6.83505 30.0694 6.10138 30.7794 5.39138ZM37.8557 7.78171C36.7907 9.36738 34.9447 11.947 33.004 10.0064L37.9267 5.08371C37.477 4.61038 37.1457 4.20805 36.8854 3.97138C34.2347 1.32071 31.2527 1.27338 28.9097 3.61638C27.3477 5.17838 26.9454 6.95338 27.395 8.65738L25.8567 6.90605C25.407 7.14271 23.5137 8.82305 24.9337 11.3317L23.1824 9.86438L20.8394 12.2074L23.987 15.355C21.5494 13.4144 18.9224 13.6037 16.816 15.71C14.5677 17.9584 14.7097 20.7037 16.4137 22.952L16.0824 22.6207C13.8577 20.396 11.42 21.177 10.213 22.384C9.29004 23.307 8.72204 24.585 8.9587 25.4844L4.10704 20.6327L1.52737 23.2124L11.065 32.75H16.177L12.7454 29.3184C10.9467 27.4724 10.8994 26.502 11.775 25.6264C12.627 24.7744 13.5974 25.3187 15.3487 27.0464L18.7567 30.4544L21.3127 27.8984L18.094 24.6797C20.4134 26.431 23.206 26.5257 25.691 24.0644C25.7147 24.0407 25.7147 24.0407 25.7384 24.017C27.253 22.6207 27.7027 21.248 27.7027 21.248L25.762 19.9464C24.697 21.532 22.851 24.1117 20.9104 22.171L25.833 17.2484L28.9097 20.325L31.584 17.6507L27.75 13.722C25.9514 11.9234 27.0164 10.243 27.7737 9.60405C28.1287 10.3377 28.6257 11.0477 29.2884 11.7104C31.7734 14.1954 34.992 14.6924 37.8084 11.8997C37.832 11.876 37.832 11.876 37.8557 11.8524C39.3704 10.456 39.82 9.08338 39.82 9.08338L37.8557 7.78171Z" fill="#153947"/>
</svg>
